<?xml version="1.0" encoding="UTF-8" standalone="no"?> <svg xmlns="http://www.w3.org/2000/svg" viewBox="0 0 64 64"><title>1</title><g id="Layer_48" data-name="Layer 48"><path d="M54.41,37.4l0,0-2.57-3.19L52.47,12s0-.08,0-.12,0-.12,0-.17a2,2,0,0,0,0-.2c0-.05,0-.11,0-.16a2,2,0,0,0-.09-.22l-.06-.12a2,2,0,0,0-.47-.59l-.1-.08-.2-.14-.14-.07-.2-.08-.16,0-.12,0L29.07,6,26.48,2.75a2,2,0,0,0-2.81-.3A24.36,24.36,0,0,0,15.92,29.1a8.35,8.35,0,0,0-1.66,10.29,2,2,0,0,0,.23.32L3.49,59a2,2,0,0,0,1.74,3h32a2,2,0,0,0,1.74-3L30.42,44A24.32,24.32,0,0,0,54,40.25l.06,0a2,2,0,0,0,.3-2.82ZM41.7,21.63l6.65-5.36L48,29.4Zm4.14-8.47-6.65,5.36-6.26-7.77Zm-20,23.12a4.27,4.27,0,0,1-1.07,2c-.07.08-.16.14-.23.21h0a4.35,4.35,0,0,1-6.11-.35,2,2,0,0,0-.5-.39,2,2,0,0,0-.16-.36,4.24,4.24,0,0,1-.44-3.1A4.4,4.4,0,0,1,22.54,31,4.38,4.38,0,0,1,25.82,36.28ZM8.67,58l8.82-15.5a8.53,8.53,0,0,0,7.64.32L33.76,58ZM29,39A8.37,8.37,0,0,0,19.5,27.17,20.35,20.35,0,0,1,24.69,6.9L37.33,22.58,48.24,36.12h0L50,38.27A20.35,20.35,0,0,1,29,39Z"/><path d="M59,5.15C56.42,2,52.1,1.24,49.32,3.47a2,2,0,0,0,2.51,3.12c1-.83,2.87-.34,4,1.07a4,4,0,0,1,.92,2.48A2.17,2.17,0,0,1,56,11.81a2,2,0,1,0,2.51,3.11,6.13,6.13,0,0,0,2.21-4.72A7.91,7.91,0,0,0,59,5.15Z"/></g></svg>