<?xml version="1.0" encoding="UTF-8" standalone="no"?> <svg xmlns="http://www.w3.org/2000/svg" viewBox="0 0 64 64"><g id="Layer_38" data-name="Layer 38"><path d="M44.43,31.3A7.76,7.76,0,0,0,50,29.09.75.75,0,0,0,50,28,.74.74,0,0,0,49,28a6.55,6.55,0,0,1-5.44,1.72,10.32,10.32,0,0,1-5.63-2.59l.82-.82c4.27,2.91,9.07-2.82,5.46-6.52S34.75,21,37.66,25.28l-.82.82a10.32,10.32,0,0,1-2.59-5.63A6.55,6.55,0,0,1,36,15,.74.74,0,0,0,36,14a.75.75,0,0,0-1.06,0,8,8,0,0,0-2.15,6.67,10.79,10.79,0,0,0,.67,2.7,3,3,0,0,0-2.92.79l-.93.93L19.51,16.77a.76.76,0,0,0-1,.05L14,21.35a.76.76,0,0,0-.05,1l8.29,10.07L21,33.61a3.06,3.06,0,0,0,0,4.32l.13.13-2.7,3.3a.75.75,0,0,0,.05,1l1,1-3,3a.75.75,0,0,0,0,1.06.75.75,0,0,0,1.06,0l3-3,1,1a.77.77,0,0,0,.53.22.73.73,0,0,0,.47-.17l3.3-2.7.13.13a3.07,3.07,0,0,0,4.32,0l1.18-1.18,10.07,8.29a.78.78,0,0,0,.48.17.74.74,0,0,0,.53-.22l4.53-4.53a.76.76,0,0,0,0-1L38.94,34.42l.93-.93a3,3,0,0,0,.79-2.92,10.79,10.79,0,0,0,2.7.67A9.73,9.73,0,0,0,44.43,31.3ZM39.2,20.88a2.77,2.77,0,0,1,3.92,3.92A2.77,2.77,0,0,1,39.2,20.88ZM23.27,31.37l-7.76-9.44,3.57-3.57,9.43,7.76ZM22.22,43.94l-2.16-2.16,2.17-2.65,2.65,2.64Zm23.42,1-3.57,3.57-9.44-7.76,5.25-5.24ZM38.81,32.43l-9.48,9.48a1.55,1.55,0,0,1-2.2,0l-5-5a1.55,1.55,0,0,1,0-2.2l9.48-9.48a1.55,1.55,0,0,1,2.2,0l5,5A1.55,1.55,0,0,1,38.81,32.43Z"/><path d="M32,60.75A28.75,28.75,0,1,1,60.75,32,28.79,28.79,0,0,1,32,60.75Zm0-56A27.25,27.25,0,1,0,59.25,32,27.28,27.28,0,0,0,32,4.75Z"/></g></svg>