<?xml version="1.0" encoding="UTF-8" standalone="no"?> <svg id="a8117ae5-7224-4140-8689-6851aaabcdc5" data-name="glyph" xmlns="http://www.w3.org/2000/svg" viewBox="0 0 64 64"><title>1</title><path d="M43.79049,26.33952l2.33584-2.33585a6.16458,6.16458,0,0,1-1.9834-1.33386c-1.08485-1.17765-3.62655-3.25142-4.13962-4.803l-2.34286,2.34272C37.94135,20.42643,42.89565,25.3407,43.79049,26.33952Z"/><path d="M20.20345,37.66661l-2.46713,2.46713a11.80319,11.80319,0,0,1,6.13,6.13l2.46718-2.46718C26.05268,43.57954,21.09844,38.66526,20.20345,37.66661Z"/><path d="M30.77025,30.77638c-2.45925,2.585-.13047,4.91622,2.46038,2.46022C35.69772,30.63706,33.363,28.3062,30.77025,30.77638Z"/><path d="M16.16747,7.03736l-2.0318-2.0318A3.44533,3.44533,0,0,0,9.27044,5.0055L4.9995,9.27644a3.44334,3.44334,0,0,0,.0069,4.8584l2.0318,2.0318C7.87016,15.33217,16.16747,7.03736,16.16747,7.03736Z"/><path d="M8.4204,17.54884l4.42987,4.42987s8.2608-8.26195,9.12928-9.12928L17.54967,8.41957C16.71809,9.25442,8.4204,17.54884,8.4204,17.54884Z"/><path d="M58.99444,49.86427l-2.0318-2.0318s-8.26093,8.26189-9.12934,9.12934l2.03186,2.03179a3.44327,3.44327,0,0,0,4.85834.0069l4.271-4.27094A3.4454,3.4454,0,0,0,58.99444,49.86427Z"/><path d="M49.76836,40.63826l-2.0387-2.03876a3.42235,3.42235,0,0,0-3.414-.85694L40.4041,33.83094l1.65174-1.65167a3.43707,3.43707,0,0,0-.0069-4.8584l-5.36981-5.36975a3.42855,3.42855,0,0,0-4.85144,0L30.176,23.60279l-3.91851-3.91845a3.42231,3.42231,0,0,0-.85694-3.414l-2.03876-2.0387c-.82464.842-9.12927,9.12927-9.12927,9.12927l2.0387,2.0387a3.42234,3.42234,0,0,0,3.414.857l3.91846,3.91852L21.952,31.82679a3.437,3.437,0,0,0-.00689,4.8584l5.36981,5.36975a3.44526,3.44526,0,0,0,4.86523,0l1.65168-1.65167,3.91162,3.91156a3.42235,3.42235,0,0,0,.85693,3.414l2.03876,2.0387C41.46373,48.9254,49.76836,40.63826,49.76836,40.63826ZM24.98583,28.79292c-.83445-.82808-2.77632-2.78092-3.62826-3.62825l3.808-3.80791L28.79375,24.985ZM32.8919,35.8144A3.66521,3.66521,0,0,1,28.704,35.303c-2.18571-2.16238-.15953-6.09651,2.41194-7.11127a3.68484,3.68484,0,0,1,4.188.51135C37.4762,30.85783,35.47211,34.79936,32.8919,35.8144Zm5.94342,6.82794L35.214,39.02107l3.80792-3.80792c.83292.82787,2.77088,2.77449,3.62136,3.62128Z"/><path d="M55.58043,46.45033,51.15056,42.0204s-8.2608,8.262-9.12928,9.12933l4.42988,4.42987C47.28264,54.74465,55.58043,46.45033,55.58043,46.45033Z"/><path d="M42.194,17.83222a33.295,33.295,0,0,0,4.06357,4.036c2.05727,1.28448,4.93725.778,6.98014-1.244a.974.974,0,0,0,0-1.38221l-3.54529-3.54529c.30647-.30639,2.34313-2.34323,2.69519-2.69525a.97751.97751,0,0,0-1.38218-1.38209c-.365.36314-2.38578,2.387-2.6952,2.69512L44.758,10.76234a.97388.97388,0,0,0-1.38214,0C41.33663,12.83867,40.81683,15.743,42.194,17.83222Z"/><path d="M21.62,46.09c-2.77165-4.78784-8.86383-6.50416-13.14005-2.38a.97773.97773,0,0,0,0,1.38L11.09,47.7c-3.17908,3.49631,1.74245,8.39556,5.22,5.20989L18.92,55.52a.97778.97778,0,0,0,1.38,0A7.89766,7.89766,0,0,0,21.62,46.09Z"/></svg>